<svg fill="#FFF" width="116" height="18" xmlns="http://www.w3.org/2000/svg"><path d="M0 0h2.808v6.527h.05a3.87 3.87 0 0 1 .714-.84c.28-.247.587-.458.924-.63a4.821 4.821 0 0 1 2.155-.532c1.002 0 1.876.177 2.624.531a5.18 5.18 0 0 1 1.86 1.46 6.33 6.33 0 0 1 1.108 2.163c.246.824.37 1.706.37 2.645 0 .857-.111 1.69-.333 2.497a6.507 6.507 0 0 1-1.01 2.14 5.054 5.054 0 0 1-1.712 1.483c-.69.37-1.503.556-2.439.556-.427 0-.858-.029-1.293-.087a4.867 4.867 0 0 1-1.244-.333 4.26 4.26 0 0 1-1.072-.643 3.125 3.125 0 0 1-.8-1.039h-.05v1.756H0V0zm9.804 11.275c0-.577-.074-1.138-.221-1.682a4.576 4.576 0 0 0-.666-1.446A3.439 3.439 0 0 0 7.81 7.133c-.444-.255-.953-.383-1.527-.383-1.183 0-2.074.412-2.673 1.236-.6.824-.9 1.92-.9 3.289 0 .643.079 1.24.235 1.792a4.04 4.04 0 0 0 .702 1.422c.312.396.685.709 1.12.94.436.23.94.346 1.516.346.64 0 1.182-.132 1.625-.396a3.443 3.443 0 0 0 1.097-1.026c.287-.42.492-.898.615-1.434a7.314 7.314 0 0 0 .185-1.644zm13.918-1.138a4.56 4.56 0 0 0-.283-1.285 3.428 3.428 0 0 0-.64-1.076 3.173 3.173 0 0 0-.986-.742 2.894 2.894 0 0 0-1.293-.284c-.493 0-.94.087-1.343.26a3.07 3.07 0 0 0-1.034.717 3.548 3.548 0 0 0-.69 1.075 3.764 3.764 0 0 0-.283 1.335h6.552zm-6.552 1.855c0 .494.07.972.21 1.434.139.461.348.865.627 1.211.28.347.632.623 1.06.829.426.206.936.309 1.527.309.82 0 1.482-.177 1.983-.532.5-.354.874-.886 1.12-1.595h2.661a5.326 5.326 0 0 1-.764 1.855 5.325 5.325 0 0 1-1.305 1.372c-.51.37-1.08.651-1.712.84a6.868 6.868 0 0 1-1.983.285c-1.002 0-1.889-.165-2.66-.495a5.5 5.5 0 0 1-1.96-1.384 5.881 5.881 0 0 1-1.206-2.126c-.271-.825-.407-1.731-.407-2.72 0-.907.144-1.768.432-2.584a6.62 6.62 0 0 1 1.231-2.151 5.892 5.892 0 0 1 1.934-1.471c.755-.363 1.61-.544 2.562-.544 1.002 0 1.9.21 2.697.63.797.42 1.458.977 1.983 1.67a6.768 6.768 0 0 1 1.146 2.385c.238.899.3 1.826.184 2.782h-9.36zM27.393 4.87h2.118V1.038h2.808v3.833h2.538v2.102h-2.538v6.824c0 .296.013.552.037.766.025.214.082.396.173.544.09.148.226.26.406.334.18.074.427.111.74.111.196 0 .393-.004.59-.012a2.87 2.87 0 0 0 .592-.087v2.176l-.912.099c-.295.033-.6.05-.911.05-.74 0-1.335-.07-1.786-.21-.452-.14-.805-.347-1.06-.619a2.136 2.136 0 0 1-.517-1.026 7.749 7.749 0 0 1-.16-1.41v-7.54h-2.118V4.87zm20.15 9.94c0 .346.045.593.135.741.09.149.267.223.53.223h.296c.115 0 .246-.017.394-.05v1.954a8.202 8.202 0 0 1-.862.223 5.08 5.08 0 0 1-.912.098c-.575 0-1.05-.115-1.429-.346-.377-.23-.624-.635-.739-1.212-.558.544-1.244.94-2.056 1.187a8.072 8.072 0 0 1-2.353.371 5.749 5.749 0 0 1-1.65-.235 4.325 4.325 0 0 1-1.392-.692 3.315 3.315 0 0 1-.96-1.162c-.24-.47-.358-1.018-.358-1.645 0-.79.144-1.434.431-1.928a3.2 3.2 0 0 1 1.133-1.162c.468-.28.994-.482 1.577-.606s1.17-.218 1.761-.284c.51-.1.994-.17 1.453-.21.46-.042.867-.112 1.22-.21.353-.1.632-.252.837-.458.206-.206.308-.515.308-.927 0-.363-.086-.66-.258-.89a1.737 1.737 0 0 0-.64-.532 2.759 2.759 0 0 0-.85-.247 6.786 6.786 0 0 0-.888-.062c-.788 0-1.437.165-1.946.495-.509.33-.796.84-.862 1.532h-2.808c.05-.824.246-1.508.591-2.052s.784-.98 1.318-1.31a5.38 5.38 0 0 1 1.81-.692 10.741 10.741 0 0 1 2.07-.198c.624 0 1.24.066 1.847.198a5.236 5.236 0 0 1 1.638.642c.485.297.875.68 1.17 1.15.296.47.444 1.043.444 1.719v6.576zm-2.808-3.561c-.427.28-.953.45-1.577.507-.624.058-1.248.144-1.872.26a5.861 5.861 0 0 0-.862.21c-.28.09-.526.214-.74.37a1.627 1.627 0 0 0-.504.619c-.123.255-.185.564-.185.927 0 .313.09.577.271.791.18.214.398.383.653.507.254.124.534.21.837.26.304.049.58.074.826.074a4.53 4.53 0 0 0 1.01-.124 3.352 3.352 0 0 0 1.022-.42c.32-.198.587-.45.8-.754.214-.305.32-.68.32-1.125V11.25zm7.956 2.3c.083.824.395 1.4.937 1.73.541.33 1.19.495 1.946.495.262 0 .562-.02.899-.062.336-.041.653-.12.948-.235.296-.115.538-.284.727-.507.189-.222.275-.515.258-.878a1.247 1.247 0 0 0-.394-.89 2.729 2.729 0 0 0-.948-.556 9.162 9.162 0 0 0-1.318-.359 62.052 62.052 0 0 1-1.503-.321 14.063 14.063 0 0 1-1.515-.42 4.882 4.882 0 0 1-1.305-.668 3.081 3.081 0 0 1-.924-1.075c-.23-.437-.345-.977-.345-1.62 0-.692.169-1.273.505-1.743.337-.47.764-.849 1.281-1.137a5.564 5.564 0 0 1 1.724-.606 10.093 10.093 0 0 1 1.811-.173c.657 0 1.285.07 1.885.21.599.14 1.14.367 1.625.68.485.313.887.721 1.207 1.224.32.502.522 1.108.604 1.817h-2.931c-.132-.676-.44-1.13-.924-1.36-.485-.23-1.039-.346-1.663-.346-.197 0-.431.016-.702.05a3.237 3.237 0 0 0-.764.185c-.238.09-.439.222-.603.395-.164.174-.247.4-.247.68 0 .347.12.627.358.841.238.214.55.392.936.532s.825.26 1.318.358a86.67 86.67 0 0 1 1.527.322c.509.115 1.01.255 1.503.42.492.165.931.387 1.317.668.386.28.698.634.937 1.063.238.428.357.956.357 1.582 0 .758-.173 1.401-.518 1.929a4.097 4.097 0 0 1-1.342 1.285 6.05 6.05 0 0 1-1.835.717 9.253 9.253 0 0 1-1.996.223c-.804 0-1.547-.09-2.229-.272a5.188 5.188 0 0 1-1.774-.828 4.006 4.006 0 0 1-1.182-1.385c-.287-.552-.44-1.207-.456-1.966h2.808zm19.412-3.413a4.56 4.56 0 0 0-.284-1.285 3.428 3.428 0 0 0-.64-1.076 3.173 3.173 0 0 0-.985-.742A2.894 2.894 0 0 0 68.9 6.75c-.492 0-.94.087-1.342.26a3.07 3.07 0 0 0-1.035.717 3.548 3.548 0 0 0-.69 1.075 3.764 3.764 0 0 0-.283 1.335h6.553zm-6.553 1.855c0 .494.07.972.21 1.434.14.461.349.865.628 1.211.279.347.632.623 1.059.829.427.206.936.309 1.527.309.821 0 1.482-.177 1.983-.532.501-.354.875-.886 1.121-1.595h2.66a5.326 5.326 0 0 1-.763 1.855 5.325 5.325 0 0 1-1.306 1.372c-.509.37-1.08.651-1.712.84a6.868 6.868 0 0 1-1.983.285c-1.001 0-1.888-.165-2.66-.495a5.5 5.5 0 0 1-1.959-1.384 5.881 5.881 0 0 1-1.207-2.126c-.27-.825-.406-1.731-.406-2.72 0-.907.144-1.768.431-2.584a6.62 6.62 0 0 1 1.232-2.151 5.892 5.892 0 0 1 1.934-1.471c.755-.363 1.609-.544 2.561-.544 1.002 0 1.901.21 2.698.63.796.42 1.457.977 1.983 1.67a6.768 6.768 0 0 1 1.145 2.385c.238.899.3 1.826.185 2.782h-9.36zM77.054 4.87h2.636v2.472h.05c.081-.346.241-.684.48-1.013a4.7 4.7 0 0 1 .862-.903 4.35 4.35 0 0 1 1.12-.655c.411-.165.83-.247 1.257-.247.328 0 .554.008.677.024l.382.05v2.72a13.29 13.29 0 0 0-.603-.087 5.045 5.045 0 0 0-.604-.037c-.476 0-.924.095-1.342.284-.42.19-.785.47-1.097.841-.312.37-.558.828-.739 1.372-.18.544-.27 1.17-.27 1.88v6.082h-2.809V4.87zM85.8 0h2.808v2.67H85.8V0zm0 4.87h2.808v12.784H85.8V4.87zm14.608 5.267a4.56 4.56 0 0 0-.283-1.285 3.428 3.428 0 0 0-.64-1.076 3.173 3.173 0 0 0-.986-.742 2.894 2.894 0 0 0-1.293-.284c-.493 0-.94.087-1.343.26a3.07 3.07 0 0 0-1.035.717 3.548 3.548 0 0 0-.69 1.075 3.764 3.764 0 0 0-.283 1.335h6.553zm-6.553 1.855c0 .494.07.972.21 1.434.14.461.349.865.628 1.211.279.347.632.623 1.06.829.426.206.935.309 1.526.309.822 0 1.483-.177 1.983-.532.501-.354.875-.886 1.121-1.595h2.66a5.326 5.326 0 0 1-.763 1.855 5.325 5.325 0 0 1-1.306 1.372c-.509.37-1.08.651-1.712.84a6.868 6.868 0 0 1-1.983.285c-1.001 0-1.888-.165-2.66-.495a5.5 5.5 0 0 1-1.958-1.384 5.881 5.881 0 0 1-1.207-2.126c-.271-.825-.407-1.731-.407-2.72 0-.907.144-1.768.431-2.584A6.62 6.62 0 0 1 92.71 6.54a5.892 5.892 0 0 1 1.934-1.471c.755-.363 1.609-.544 2.562-.544 1.001 0 1.9.21 2.697.63.796.42 1.457.977 1.983 1.67a6.768 6.768 0 0 1 1.145 2.385c.238.899.3 1.826.185 2.782h-9.36zm13.623 1.557c.082.825.394 1.402.936 1.731.542.33 1.19.495 1.946.495.263 0 .562-.02.899-.062.337-.041.653-.12.948-.235.296-.115.538-.284.727-.507.189-.222.275-.515.259-.878a1.247 1.247 0 0 0-.394-.89 2.729 2.729 0 0 0-.949-.556 9.162 9.162 0 0 0-1.318-.359 62.052 62.052 0 0 1-1.502-.321 14.063 14.063 0 0 1-1.515-.42 4.882 4.882 0 0 1-1.306-.668 3.081 3.081 0 0 1-.924-1.075c-.23-.437-.345-.977-.345-1.62 0-.692.169-1.273.505-1.743.337-.47.764-.849 1.281-1.137a5.564 5.564 0 0 1 1.725-.606 10.093 10.093 0 0 1 1.81-.173c.657 0 1.285.07 1.885.21.6.14 1.141.367 1.626.68.484.313.886.721 1.207 1.224.32.502.521 1.108.603 1.817h-2.931c-.132-.676-.44-1.13-.924-1.36-.484-.23-1.039-.346-1.663-.346-.197 0-.43.016-.702.05a3.237 3.237 0 0 0-.763.185c-.239.09-.44.222-.604.395-.164.174-.246.4-.246.68 0 .347.119.627.357.841.238.214.55.392.936.532s.825.26 1.318.358a86.67 86.67 0 0 1 1.527.322c.51.115 1.01.255 1.503.42a4.82 4.82 0 0 1 1.318.668c.386.28.698.634.936 1.063.238.428.357.956.357 1.582 0 .758-.172 1.401-.517 1.929a4.097 4.097 0 0 1-1.343 1.285 6.05 6.05 0 0 1-1.835.717 9.253 9.253 0 0 1-1.995.223 8.63 8.63 0 0 1-2.23-.272 5.188 5.188 0 0 1-1.773-.828 4.009 4.009 0 0 1-1.183-1.385c-.287-.552-.44-1.207-.455-1.966h2.808z" fill-rule="evenodd"/></svg>